<?xml version="1.0" encoding="utf-8"?>
<!-- Generator: Adobe Illustrator 23.1.0, SVG Export Plug-In . SVG Version: 6.00 Build 0)  -->
<svg version="1.1" id="Capa_1" xmlns="http://www.w3.org/2000/svg" xmlns:xlink="http://www.w3.org/1999/xlink" x="0px" y="0px"
	 viewBox="0 0 1014.84 307.17" style="enable-background:new 0 0 1014.84 307.17;" xml:space="preserve">
<style type="text/css">
	.st0{fill:#FFFFFF;}
	.st1{fill-rule:evenodd;clip-rule:evenodd;fill:#FFFFFF;}
	.st2{fill:#E6E7E8;}
	.st3{fill:#D0D2D3;}
	.st4{fill-rule:evenodd;clip-rule:evenodd;fill:#D0D2D3;}
	.st5{enable-background:new    ;}
</style>
<g>
	<g>
		<g>
			<polygon class="st0" points="187.49,176.8 164.59,176.8 180.09,73.4 203.09,73.4 			"/>
		</g>
		<g>
			<polygon class="st0" points="319.69,176.8 296.19,176.8 293.59,119.1 265.09,168.7 254.49,168.7 242.49,121.1 222.79,176.8 
				200.49,176.8 238.99,73.4 247.99,73.4 266.29,134.5 302.69,73.4 312.19,73.4 			"/>
		</g>
		<g>
			<path class="st0" d="M416.79,80l-12,17c-1.6-1.4-3.6-2.7-6-3.8c-2.3-1.2-5.9-1.8-10.7-1.8c-7.7,0-14.8,3-21.2,9
				s-10.3,14.1-11.8,24.2c-1.6,10.4-0.6,18.7,2.8,24.9c3.4,6.2,9.8,9.2,19,9.2c4,0,8.5-0.6,13.7-1.7c5.2-1.1,9.7-2.6,13.5-4.4
				l-2.8,18.9c-3.7,2.1-8.4,3.8-13.9,4.9c-5.5,1.2-10.3,1.8-14.6,1.8c-16,0-27.6-4.7-34.8-14.1c-7.2-9.4-9.5-22.3-7-38.7
				c2.2-14.5,8.5-27,19-37.3c10.5-10.4,23.8-15.6,39.9-15.6c4.3,0,9.1,0.6,14.2,1.8C409.19,75.6,413.39,77.5,416.79,80z"/>
		</g>
		<g>
			<path class="st0" d="M497.39,176.8h-25.5l-19.9-43.8h-9.3l-6.6,43.8h-22.9l15.5-103.4h34.4c11.3,0,19.6,2.6,25,7.8
				c5.4,5.2,7.4,12.4,6.1,21.5c-1,6.8-3.3,12.3-7,16.6c-3.6,4.2-8,7.1-13.2,8.7L497.39,176.8z M470.99,106.7c0.8-5.2,0.1-9-2.1-11.6
				c-2.1-2.6-5.5-3.8-10.2-3.8h-9.6l-4.6,30.7h10.4c4.3,0,7.9-1.4,10.8-4.1C468.49,115,470.29,111.3,470.99,106.7z"/>
		</g>
		<g>
			<path class="st0" d="M582.29,144.3c-1.5,9.9-5.8,18.1-12.9,24.4c-7.1,6.4-17.1,9.6-29.8,9.6c-12.6,0-21.3-3-26.2-9.2
				c-4.9-6.2-6.5-14.4-5-24.8l10.6-70.9h23l-10.7,71.4c-0.7,4.8-0.1,8.6,1.9,11.4c2,2.7,5.7,4.1,11,4.1c5.5,0,9.8-1.5,12.8-4.6
				c3-3,4.9-7.9,6-14.6l10.2-67.7h20L582.29,144.3z"/>
		</g>
		<g>
			<polygon class="st0" points="659.69,176.8 584.29,176.8 585.79,166.3 642.19,91.2 601.29,91.2 603.89,73.4 674.59,73.4 
				673.09,83.4 616.49,159.1 662.39,159.1 			"/>
		</g>
	</g>
	<g>
		<g>
			<g id="SVGID_35_">
				<path class="st1" d="M121.89,179.7c-2.5-12.9-3.9-28.5-1.2-46.4c3.2-20.9,9.3-37.3,18.8-50.7c9.6-13.5,21.3-37.5,21.3-37.5
					h-46.5c0,0-8.9,17.9-22,36.8c-20,28.9-23.7,69.2-17.9,97.9h47.5V179.7z"/>
			</g>
		</g>
	</g>
	<g>
		<path class="st1" d="M55.39,0.1c0,0,5.6,36.2-23.2,69.7c-27.3,31.8-27.8,83-24.5,109.4h47.3c0,0-12.9-52.8,20.5-101.5
			c34.6-50.4,27.3-77.5,27.3-77.5h-47.4V0.1z"/>
	</g>
	<g>
		<path class="st2" d="M102.69,0.1l-3.9,4.7h-37.8c0,0,4,35.7-25.9,69.2c-30.5,34.2-22.3,100.5-22.3,100.5l-5.3,4.8
			c0,0-9.8-62.9,20.1-103.8c26-35.6,28.1-46.4,27.7-75.3L102.69,0.1L102.69,0.1z"/>
	</g>
	<g>
		<path class="st2" d="M160.89,44.9l-6.8,3.9h-37.3c0,0-5.2,13.7-25.5,43.6c0,0-21.4,40.2-12.8,82.8l-3.9,4.5c0,0-10.9-49.2,13-90
			c0,0,19.5-28.8,26.9-44.7L160.89,44.9L160.89,44.9z"/>
	</g>
	<g>
		<path class="st3" d="M74.59,179.7l3.9-4.5h37.3c0,0-13.1-53.5,25.5-104.6c4.3-5.7,12.8-21.8,12.8-21.8l6.8-3.9
			c0,0-6.2,14.2-13.6,25.4c-14.9,22.6-35.7,52.4-25.4,109.3L74.59,179.7L74.59,179.7z"/>
	</g>
	<g>
		<path class="st4" d="M7.59,179.2l5.3-4.8h35.3c0,0-5.1-50.6,12.4-83.8c13.2-25.1,33.2-40,38.2-85.9l3.9-4.7
			c0,0,7.3,30.6-30.6,82.7c-26.1,35.9-17.2,96.3-17.2,96.3H7.59V179.2z"/>
	</g>
</g>
<g class="st5">
	<path class="st0" d="M44.15,269.43c0,7.48-2.49,12.91-6.68,16.91c-4.09,3.38-9.35,5.61-15.4,5.61s-11.3-2.23-15.4-5.61
		c-4.18-4-6.68-9.43-6.68-16.91v-44.59h9.61v44.32c0,12.19,8.9,13.97,12.46,13.97c3.56,0,12.46-1.78,12.46-13.97v-44.32h9.61V269.43
		z"/>
	<path class="st0" d="M91.14,290.7v-26.79c0-3.83,0-15.4-12.28-15.4c-7.74,0-12.99,5.43-12.99,15.31v26.88H56.6v-49.31h8.63v5.25
		h0.18c4.98-6.59,12.46-6.59,14.42-6.59c7.65,0,13.88,3.29,17.44,8.81c1.96,3.2,3.03,7.12,3.12,12.64v29.19H91.14z"/>
	<path class="st0" d="M152.72,290.7v-7.65h-0.18c-3.56,6.05-10.06,8.9-16.73,8.9c-16.64,0-26.17-12.73-26.17-25.72
		c0-12.02,8.46-26.17,26.17-26.17c6.85,0,13.17,2.85,16.73,8.28h0.18v-6.94h9.26v49.31H152.72z M135.81,248.51
		c-11.39,0-16.91,9.88-16.91,17.62c0,8.9,7.03,17.36,16.82,17.36c9.7,0,17.18-7.92,17.18-17.36
		C152.9,255.64,145.34,248.51,135.81,248.51z"/>
	<path class="st0" d="M198.38,290.7v-65.86h35.51v8.81h-25.9v19.4h25.9v8.81h-25.9v20.03h25.9v8.81H198.38z"/>
	<path class="st0" d="M310.16,290.7v-27.41c0-4.18-0.53-14.78-11.66-14.78c-11.84,0-11.66,10.59-11.75,14.69v27.5h-9.26v-27.41
		c0.09-4.09-0.09-6.85-2.05-10.15c-2.31-3.56-5.79-4.63-9.17-4.63c-12.19,0-12.19,11.04-12.19,14.69v27.5h-9.26v-49.31h8.54v5.34
		h0.18c1.78-2.05,4.98-6.68,14.15-6.68c5.96,0,12.82,2.85,15.31,8.28c1.6-2.49,5.25-8.28,16.29-8.28c8.28,0,14.15,3.38,17.36,8.9
		c1.78,3.2,2.76,7.21,2.76,12.02v29.73H310.16z"/>
	<path class="st0" d="M331.25,241.39h8.46v7.57h0.18c4.45-6.41,11.21-8.9,17.53-8.9c16.73,0,25.54,13.44,25.54,26.61
		c0,12.46-9.35,25.28-24.92,25.28c-10.32,0-15.49-5.25-17.36-8.37h-0.18v23.59h-9.26V241.39z M356.8,248.51
		c-9.7,0-16.47,8.37-16.47,17.45c0,9.97,7.39,17.53,16.73,17.53c8.72,0,16.64-6.94,16.64-17.36
		C373.71,257.33,366.85,248.51,356.8,248.51z"/>
	<path class="st0" d="M392.31,290.7v-49.31h8.63v4.45h0.18c3.92-5.52,10.24-5.7,12.55-5.79v9.52c-1.42,0-4.45,0.62-6.68,1.78
		c-2.94,1.6-5.43,5.34-5.43,12.37v26.97H392.31z"/>
	<path class="st0" d="M427.19,270.05c2.31,9.52,9.97,13.44,16.2,13.44c6.85,0,11.84-4.01,14.06-8.28h9.26
		c-4.72,12.73-16.02,16.73-23.68,16.73c-13.97,0-25.1-12.02-25.1-25.99c0-14.77,11.39-25.9,25.28-25.9
		c13.35,0,25.01,10.86,25.1,25.28c0,1.6-0.18,4.09-0.27,4.72H427.19z M459.06,262.93c-0.45-7.21-7.03-14.42-15.93-14.42
		c-8.9,0-15.49,7.21-15.93,14.42H459.06z"/>
	<path class="st0" d="M496.97,254.48c-0.53-4.01-2.94-5.96-6.32-5.96s-5.79,2.14-5.79,5.25c0,4.09,3.56,5.16,7.65,6.41
		c3.83,1.16,14.86,4.27,14.86,16.02c0,8.72-6.05,15.75-16.55,15.75c-6.23,0-17.44-3.92-17.44-17.45h9.26
		c0.36,5.52,3.2,8.99,8.37,8.99c4.18,0,7.12-2.58,7.12-6.76c0-4.36-3.83-5.87-8.63-7.57c-5.34-1.96-13.88-4.36-13.88-14.86
		c0-7.3,6.14-14.24,15.49-14.24c5.61,0,14.86,3.47,15.13,14.42H496.97z"/>
	<path class="st0" d="M555.8,290.7v-7.65h-0.18c-3.56,6.05-10.06,8.9-16.73,8.9c-16.64,0-26.17-12.73-26.17-25.72
		c0-12.02,8.46-26.17,26.17-26.17c6.85,0,13.17,2.85,16.73,8.28h0.18v-6.94h9.26v49.31H555.8z M538.89,248.51
		c-11.39,0-16.91,9.88-16.91,17.62c0,8.9,7.03,17.36,16.82,17.36c9.7,0,17.18-7.92,17.18-17.36
		C555.98,255.64,548.41,248.51,538.89,248.51z"/>
	<path class="st0" d="M602.08,224.84h12.19v65.86h-12.19V224.84z"/>
	<path class="st0" d="M625.4,241.31h10.95v4.27c1.96-1.87,6.05-5.96,13.53-5.96c4.27,0,10.77,1.87,14.86,6.85
		c4.54,5.43,4.54,13.71,4.54,17.53v26.7h-11.84v-24.39c0-4.09,0-15.84-9.97-15.84c-2.14,0-5.96,1.07-8.1,4.36
		c-2.14,3.03-2.14,8.19-2.14,12.37v23.5H625.4V241.31z"/>
	<path class="st0" d="M728.28,274.59c-4.01,11.04-13.17,17.71-24.74,17.71c-12.64,0-26.26-10.15-26.26-26.52
		c0-15.13,12.55-26.17,26.17-26.17c6.23,0,19.76,2.85,24.83,18.07h-13.35c-1.42-2.49-4.18-7.21-11.48-7.21
		c-7.21,0-14.33,5.34-14.33,15.49c0,8.46,5.96,15.49,14.86,15.49c3.92,0,7.83-1.87,10.95-6.85H728.28z"/>
	<path class="st0" d="M735.75,224.84h11.84v19.94c1.51-1.42,5.43-5.16,12.82-5.16c5.52,0,11.66,3.03,15.22,7.57
		c3.92,4.98,3.92,12.02,3.92,15.67v27.86h-11.84v-25.28c0-5.34-0.36-14.95-10.15-14.95c-9.97,0-9.97,10.95-9.97,15.13v25.1h-11.84
		V224.84z"/>
	<path class="st0" d="M838.64,274.59c-4.01,11.04-13.17,17.71-24.74,17.71c-12.64,0-26.26-10.15-26.26-26.52
		c0-15.13,12.55-26.17,26.17-26.17c6.23,0,19.76,2.85,24.83,18.07h-13.35c-1.42-2.49-4.18-7.21-11.48-7.21
		c-7.21,0-14.33,5.34-14.33,15.49c0,8.46,5.96,15.49,14.86,15.49c3.92,0,7.83-1.87,10.95-6.85H838.64z"/>
	<path class="st0" d="M895.87,290.7h-10.86v-6.14c-3.74,4.45-11.04,7.74-17.27,7.74c-12.73,0-24.03-10.15-24.03-26.61
		c0-15.13,11.04-26.08,24.74-26.08c10.06,0,16.02,7.21,16.38,7.92h0.18v-6.23h10.86V290.7z M870.23,250.47
		c-9.7,0-14.69,8.37-14.69,15.75c0,8.37,6.23,15.22,14.69,15.22c8.19,0,14.42-6.41,14.42-15.58
		C884.65,255.64,877.27,250.47,870.23,250.47z"/>
	<path class="st0" d="M905.99,241.31h10.86v5.79h0.18c5.87-7.48,13.71-7.48,16.02-7.48c16.2,0,24.74,13.97,24.74,26.17
		c0,14.6-10.77,26.52-24.74,26.52c-8.37,0-12.1-3.38-15.22-6.32v21.18h-11.84V241.31z M931.53,281.45c6.32,0,14.42-5.34,14.42-15.49
		c0-9.08-6.94-15.49-14.24-15.49c-7.39,0-14.6,5.96-14.6,15.49C917.11,276.91,925.93,281.45,931.53,281.45z"/>
	<path class="st0" d="M975.77,271.3c0.53,3.2,5.16,10.15,13.62,10.15c5.25,0,9.17-2.22,11.39-6.32h12.46
		c-2.85,8.9-12.28,17.18-23.85,17.18c-14.69,0-26.08-11.75-26.08-26.17c0-13.97,10.77-26.79,25.99-26.79
		c15.67,0,25.54,13.53,25.54,25.99c0,2.31-0.36,4.36-0.71,5.96H975.77z M1002.73,261.78c-1.33-7.92-7.48-11.57-13.35-11.57
		c-4.36,0-11.75,2.4-13.97,11.57H1002.73z"/>
</g>
</svg>
